<svg width="24" height="19" viewBox="0 0 24 19" fill="none" xmlns="http://www.w3.org/2000/svg">
<path d="M15.7836 10.5556C16.8984 10.5556 17.802 11.3826 17.802 12.4028V17.1528C17.802 18.173 16.8984 19 15.7836 19H2.51959C1.40484 19 0.501157 18.173 0.501157 17.1528V12.4028C0.501157 11.3826 1.40484 10.5556 2.51959 10.5556H15.7836ZM22.416 12.5599L22.4156 18.2083C22.4156 18.6455 22.0283 19 21.5506 19C21.1126 19 20.7507 18.7021 20.6935 18.3158L20.6855 18.2083L20.6851 12.5735C20.953 12.6344 21.2333 12.6667 21.5217 12.6667C21.831 12.6667 22.1307 12.6295 22.416 12.5599ZM15.7836 12.1389H2.51959C2.36033 12.1389 2.23125 12.257 2.23125 12.4028V17.1528C2.23125 17.2986 2.36033 17.4167 2.51959 17.4167H15.7836C15.9429 17.4167 16.072 17.2986 16.072 17.1528V12.4028C16.072 12.257 15.9429 12.1389 15.7836 12.1389ZM21.5503 7.48589C22.7658 7.48589 23.7511 8.38766 23.7511 9.5C23.7511 10.6123 22.7658 11.5141 21.5503 11.5141C20.3349 11.5141 19.3496 10.6123 19.3496 9.5C19.3496 8.38766 20.3349 7.48589 21.5503 7.48589ZM15.7785 0C16.8933 0 17.797 0.827028 17.797 1.84722V6.59722C17.797 7.61742 16.8933 8.44444 15.7785 8.44444H2.51453C1.39978 8.44444 0.496094 7.61742 0.496094 6.59722V1.84722C0.496094 0.878043 1.31167 0.0831883 2.34898 0.00612223L2.51453 0H15.7785ZM15.7785 1.58333H2.51453L2.44841 1.5903C2.32103 1.61765 2.22618 1.7223 2.22618 1.84722V6.59722C2.22618 6.74296 2.35528 6.86111 2.51453 6.86111H15.7785C15.9378 6.86111 16.0669 6.74296 16.0669 6.59722V1.84722C16.0669 1.70148 15.9378 1.58333 15.7785 1.58333ZM21.5506 0C21.9885 0 22.3504 0.297825 22.4078 0.684243L22.4156 0.791667L22.416 6.44008C22.1307 6.37045 21.831 6.33333 21.5217 6.33333C21.2333 6.33333 20.953 6.36564 20.6851 6.42653L20.6855 0.791667C20.6855 0.354445 21.0728 0 21.5506 0Z" fill="white"/>
</svg>
