<svg width="24" height="22" viewBox="0 0 24 22" fill="none" xmlns="http://www.w3.org/2000/svg">
<path d="M12.3858 0C13.2975 0.00954464 14.2055 0.105217 15.0953 0.285482C15.4838 0.364174 15.7743 0.658321 15.8184 1.0176L16.0298 2.7402C16.1254 3.53113 16.8605 4.13019 17.737 4.13102C17.9725 4.13136 18.2056 4.0868 18.4232 3.99931L20.1629 3.30515C20.5247 3.16078 20.9474 3.23949 21.2175 3.50153C22.4747 4.72114 23.4109 6.18388 23.9557 7.77965C24.0732 8.12375 23.9381 8.4977 23.6188 8.71146L22.0768 9.74388C21.637 10.0374 21.3772 10.5036 21.3772 10.9995C21.3772 11.4952 21.637 11.9614 22.0778 12.2556L23.6211 13.2884C23.9405 13.5021 24.0758 13.8761 23.9582 14.2203C23.4136 15.8158 22.4779 17.2784 21.2215 18.4982C20.9516 18.7602 20.5292 18.8392 20.1674 18.6951L18.4207 18C17.9211 17.8013 17.3472 17.8304 16.8749 18.0784C16.4027 18.3263 16.0884 18.7635 16.0284 19.2559L15.8184 20.9784C15.7751 21.3335 15.4908 21.6257 15.1082 21.7084C13.3091 22.0972 11.4348 22.0972 9.63588 21.7084C9.25318 21.6257 8.96894 21.3335 8.92564 20.9784L8.71595 19.2585C8.65437 18.767 8.33961 18.3311 7.86775 18.084C7.39589 17.837 6.82295 17.808 6.32489 18.0055L4.57786 18.7007C4.21599 18.8448 3.79348 18.7658 3.52366 18.5036C2.26655 17.2825 1.33078 15.818 0.786784 14.2208C0.669626 13.8768 0.805005 13.5031 1.12418 13.2895L2.6684 12.2561C3.10824 11.9625 3.36802 11.4963 3.36802 11.0006C3.36802 10.5047 3.10824 10.0386 2.66783 9.74467L1.12457 8.71298C0.804918 8.4993 0.669415 8.12511 0.786995 7.78078C1.33193 6.18501 2.26819 4.72227 3.52532 3.50266C3.79542 3.24062 4.21813 3.1619 4.57993 3.30628L6.3192 4.00031C6.81967 4.19982 7.395 4.16969 7.86941 3.91792C8.34177 3.66903 8.65625 3.23144 8.71696 2.73888L8.9282 1.0176C8.97231 0.65814 9.26307 0.363892 9.65174 0.285369C10.5426 0.105397 11.4516 0.009759 12.3858 0ZM12.3861 1.6922C11.8222 1.69822 11.2598 1.74244 10.7038 1.82433L10.5684 2.92677C10.442 3.95288 9.78741 4.86373 8.80669 5.38046C7.81999 5.9041 6.61697 5.96713 5.57024 5.54985L4.45455 5.10464C3.7442 5.88781 3.17881 6.77077 2.78061 7.71884L3.77148 8.38122C4.68908 8.99362 5.23103 9.96625 5.23103 11.0006C5.23103 12.0348 4.68908 13.0074 3.77244 13.6192L2.78002 14.2833C3.17788 15.2331 3.74336 16.1177 4.45419 16.9024L5.57837 16.455C6.61928 16.0422 7.81412 16.1026 8.79814 16.6178C9.78216 17.1331 10.4386 18.042 10.5673 19.0696L10.7027 20.1797C11.8076 20.3504 12.9364 20.3504 14.0413 20.1797L14.1767 19.0698C14.3019 18.0424 14.9575 17.1304 15.9427 16.6132C16.928 16.0959 18.1251 16.0352 19.1679 16.4498L20.2913 16.8968C21.0015 16.1134 21.5667 15.2302 21.9648 14.282L20.9738 13.6187C20.0562 13.0063 19.5142 12.0337 19.5142 10.9995C19.5142 9.96512 20.0562 8.99249 20.9727 8.38086L21.9623 7.71817C21.5641 6.76994 20.9987 5.88681 20.2882 5.10352L19.1748 5.54782C18.7211 5.73018 18.2302 5.82404 17.7345 5.82334C15.9092 5.8216 14.3773 4.57325 14.178 2.92638L14.0427 1.82397C13.4894 1.74218 12.9329 1.69809 12.3861 1.6922ZM12.3703 6.76919C14.9426 6.76919 17.0278 8.66337 17.0278 11C17.0278 13.3365 14.9426 15.2308 12.3703 15.2308C9.79808 15.2308 7.71283 13.3365 7.71283 11C7.71283 8.66337 9.79808 6.76919 12.3703 6.76919ZM12.3703 8.4615C10.827 8.4615 9.57584 9.598 9.57584 11C9.57584 12.4019 10.827 13.5385 12.3703 13.5385C13.9137 13.5385 15.1648 12.4019 15.1648 11C15.1648 9.598 13.9137 8.4615 12.3703 8.4615Z" fill="white"/>
</svg>
