<svg width="24" height="24" viewBox="0 0 24 24" fill="none" xmlns="http://www.w3.org/2000/svg">
<path d="M9.75355 0.652399C10.8361 -0.217468 12.419 -0.217468 13.5015 0.652411L22.2221 7.65993C22.877 8.18624 23.255 8.96107 23.255 9.77748V21.8456C23.255 23.0354 22.2428 24 20.9941 24H16.4723C15.2236 24 14.2114 23.0354 14.2114 21.8456V15.0746C14.2114 14.9047 14.0668 14.7668 13.8884 14.7668H9.36661C9.18819 14.7668 9.04361 14.9047 9.04361 15.0746V21.8456C9.04361 23.0354 8.03138 24 6.78272 24H2.26091C1.01224 24 0 23.0354 0 21.8456V9.77748C0 8.96107 0.377959 8.18624 1.03294 7.65993L9.75355 0.652399ZM12.2522 2.06411C11.8913 1.77415 11.3637 1.77415 11.0029 2.06411L2.28224 9.07164C2.06391 9.24707 1.93792 9.50535 1.93792 9.77748V21.8456C1.93792 22.0156 2.08253 22.1534 2.26091 22.1534H6.78272C6.9611 22.1534 7.10569 22.0156 7.10569 21.8456V15.0746C7.10569 13.8847 8.11794 12.9201 9.36661 12.9201H13.8884C15.1371 12.9201 16.1493 13.8847 16.1493 15.0746V21.8456C16.1493 22.0156 16.2939 22.1534 16.4723 22.1534H20.9941C21.1725 22.1534 21.3171 22.0156 21.3171 21.8456V9.77748C21.3171 9.50535 21.1911 9.24707 20.9728 9.07164L12.2522 2.06411Z" fill="white"/>
</svg>
