<svg width="24" height="22" viewBox="0 0 24 22" fill="none" xmlns="http://www.w3.org/2000/svg">
<path d="M23.0783 11.5191C22.8711 11.8168 22.5967 12.072 22.2729 12.2685L13.8279 17.3887C12.6481 18.104 11.1029 18.104 9.92309 17.3887L1.47818 12.2685C0.415924 11.6244 0.00399907 10.4388 0.390602 9.39779L9.9397 15.1145C11.0387 15.7726 12.4495 15.8138 13.5874 15.2379L13.8112 15.1145L23.3596 9.39716C23.6132 10.0819 23.5374 10.8594 23.0783 11.5191ZM23.3596 13.472C23.6132 14.1567 23.5374 14.9342 23.0783 15.594C22.8711 15.8916 22.5967 16.1469 22.2729 16.3434L13.8279 21.4635C12.6481 22.1788 11.1029 22.1788 9.92309 21.4635L1.47818 16.3434C0.415924 15.6993 0.00399907 14.5137 0.390602 13.4727L9.9397 19.1894C11.0387 19.8475 12.4495 19.8886 13.5874 19.3128L13.8112 19.1894L23.3596 13.472ZM13.8112 0.526447L22.6962 5.8469C23.3378 6.23101 23.511 7.00946 23.0835 7.58562C22.9811 7.72335 22.8496 7.84153 22.6962 7.93336L13.8112 13.2539C12.6391 13.9557 11.112 13.9557 9.9397 13.2539L1.05473 7.93336C0.413285 7.54924 0.239959 6.77081 0.667587 6.19465C0.769821 6.0569 0.901397 5.93872 1.05473 5.8469L9.9397 0.526447C11.112 -0.175482 12.6391 -0.175482 13.8112 0.526447ZM11.2624 2.00809L11.1012 2.09128L3.08844 6.89013L11.1012 11.689C11.518 11.9385 12.0469 11.9662 12.4886 11.7721L12.6498 11.689L20.6612 6.89013L12.6498 2.09128C12.233 1.84171 11.7041 1.81398 11.2624 2.00809Z" fill="white"/>
</svg>
